<?xml version="1.0" encoding="UTF-8"?>
<!DOCTYPE svg PUBLIC "-//W3C//DTD SVG 1.1//EN" "http://www.w3.org/Graphics/SVG/1.1/DTD/svg11.dtd">
<!-- Creator: CorelDRAW -->
<svg xmlns="http://www.w3.org/2000/svg" xml:space="preserve" width="80" height="76" style="shape-rendering:geometricPrecision; text-rendering:geometricPrecision; image-rendering:optimizeQuality; fill-rule:evenodd; clip-rule:evenodd"
viewBox="0 0 125.541 122.201"
 xmlns:xlink="http://www.w3.org/1999/xlink">
 <defs>
  <style type="text/css">
   <![CDATA[
    .fil5 {fill:#0093DD}
    .fil1 {fill:#1DA838}
    .fil4 {fill:#1F1A17}
    .fil2 {fill:#9E441D}
    .fil3 {fill:white}
    .fil0 {fill:#16316F;fill-rule:nonzero}
   ]]>
  </style>
 </defs>
 <g id="Layer_x0020_1">
  <metadata id="CorelCorpID_0Corel-Layer"/>
  <g id="_67128216">
   <polygon id="_67081640" class="fil0" points="19.0174,103.576 106.262,103.576 106.262,20.5132 19.0174,20.5132 "/>
   <path id="_28970824" class="fil1" d="M32.4796 52.7971c19.6056,-7.18861 33.1341,-25.7491 29.081,-33.5259 -6.79641,1.3722 -12.2849,5.0979 -18.4283,7.58151 2.2208,-8.16901 2.2208,-14.9654 1.4373,-21.5665 -6.53521,4.8352 -16.5334,8.95301 -19.801,23.5262 -5.5563,-6.59951 -12.0915,-12.6123 -24.7686,-12.0252 2.8743,8.16901 11.6319,25.8796 24.3106,28.4295l1.2416 -2.5499c-8.95261,-4.3127 -15.5541,-15.4219 -20.4555,-22.807 12.09,3.332 17.4495,13.1348 19.9978,14.3768 2.8108,-1.1757 4.7708,-10.6515 6.99291,-12.8092 2.2872,-2.1562 3.4629,-5.4238 9.08361,-9.93341 0.131,10.3267 -3.2013,15.7509 -4.7704,23.5925l2.0256 1.1757c3.8562,-5.4885 12.0911,-7.44981 18.1683,-11.1092 -0.1965,10.5221 -16.5345,19.6716 -26.5327,26.2715l2.4178 1.3726z"/>
   <path id="_66965912" class="fil2" d="M96.0019 59.8551c6.79641,-7.64631 12.3512,-12.9398 23.6572,-16.338 -6.46931,0.1968 -4.1178,-11.0445 -9.14981,-13.8544 -6.53521,-2.2868 -8.95301,3.0064 -12.5465,8.75651 -2.6801,4.1174 -8.23491,7.12381 -11.1107,1.8303 0.980801,-5.816 3.3339,-10.7833 2.8758,-17.4491 -1.2401,-13.311 -18.7659,-21.4086 -29.6837,-22.8004l-0.0577 0 -2.1507 2.8026c15.9459,5.49 23.4619,9.60631 28.0359,19.9978 -0.2612,6.66581 -1.9598,11.959 -3.3983,17.7102 0.524,2.7453 3.1371,5.0324 5.556,5.2936 4.1163,1.8303 6.79681,-0.2612 8.69181,-1.1757 5.3579,-3.921 6.274,-11.5029 10.6511,-11.5029 3.5951,2.5499 3.3339,6.66581 5.0335,9.01881 -7.71251,3.2033 -13.2669,8.95301 -18.5604,14.7043l2.1565 3.0064z"/>
   <path id="_67236968" class="fil3" d="M25.4216 103.903c0.0659001,-0.914601 0.1306,-1.8954 0.1965,-2.9406 0.0647001,-1.111 0.0647001,-2.4836 0.0647001,-4.1833 0,-1.6338 0,-3.0064 -0.0647001,-4.1163 -0.0659001,-1.1773 -0.1306,-2.1577 -0.1965,-3.0064 0.3271,0 0.653001,0.0647001 0.980401,0.0647001 0.3259,0.0659001 0.653401,0.0659001 0.980501,0.0659001 0.2612,0 0.5875,0 0.914501,-0.0659001 0.3259,0 0.653401,-0.0647001 0.914601,-0.0647001 -0.0647001,0.848701 -0.1306,1.8954 -0.1306,3.0064 -0.0647001,1.1099 -0.0647001,2.4825 -0.0647001,4.1163 0,1.7644 0,3.2029 0.0647001,4.2481 0,1.0451 0.0659001,2.0255 0.1306,2.8758 -0.3259,-0.0663001 -0.653401,-0.0663001 -0.980401,-0.0663001 -0.3259,0 -0.5875,-0.0647001 -0.848701,-0.0647001 -0.3271,0 -0.654601,0.0647001 -0.915701,0.0647001 -0.3259,0 -0.653401,0 -1.0452,0.0663001z"/>
   <path id="_65852680" class="fil3" d="M40.1258 95.7338c0.3918,-0.0663001 0.719301,-0.2616 0.980501,-0.5228 0.5224,-0.4581 0.783901,-1.111 0.783901,-2.0919 0,-0.783901 -0.2615,-1.3063 -0.719201,-1.6985 -0.2616,-0.2612 -0.5875,-0.4577 -1.0452,-0.5224l0 -1.242 0.1306 0c1.6338,0 2.8096,0.2616 3.6594,0.784001 0.784001,0.5886 1.1773,1.3726 1.1773,2.4836 0,0.979301 -0.3933,1.7644 -1.1773,2.3519 -0.719201,0.5887 -1.8291,0.915701 -3.2676,0.980401l0 0.1306c1.6338,0 2.8096,0.2612 3.6598,0.849901 0.785101,0.5886 1.1769,1.5032 1.1769,2.6789 0,1.2421 -0.4577,2.2225 -1.3722,2.9417 -0.916101,0.718101 -2.1566,1.0456 -3.8563,1.0456l-0.1306 0 0 -1.1762c0.4577,-0.1306 0.849901,-0.3933 1.1758,-0.719201 0.5239,-0.4581 0.719201,-1.1757 0.719201,-2.1562 0,-0.916101 -0.2612,-1.6338 -0.719201,-2.0918 -0.3259,-0.326 -0.718101,-0.5228 -1.1758,-0.653401l0 -1.3722zm-1.7648 0.1306c0.0648001,0 0.131,0 0.1954,0.0658001l0.2627 0c0.4565,0 0.914601,-0.0658001 1.3067,-0.1964l0 1.3722c-0.3274,-0.0659001 -0.719201,-0.0659001 -1.1114,-0.0659001l-0.3918 0 -0.2616 0 0 2.6805c0,0.5224 0,0.980501 0.0648001,1.5028l0 1.4374c0.1968,0.0658001 0.3274,0.0658001 0.458,0.1306l0.3275 0c0.3259,0 0.653001,-0.0648001 0.914501,-0.0648001l0 1.1762c-0.3921,0 -0.980801,0 -1.7,-0.0663001l-1.9597 0c-0.2612,0 -0.719301,0 -1.3079,0.0663001l-0.1954 0c0.0648001,-0.5887 0.1306,-1.3068 0.1306,-2.0919 0.0648001,-0.718101 0.0648001,-1.8291 0.0648001,-3.2017l0 -1.8303c0,-2.1566 0,-3.6598 -0.0648001,-4.6402 0,-0.914601 -0.0658001,-1.7644 -0.1306,-2.4825l1.6338 0c0.4581,0.0647001 0.849901,0.0647001 1.1115,0.0647001 0.3259,0 0.783901,0 1.3063,-0.0647001l1.1114 0 0 1.242c-0.2615,-0.0658001 -0.5886,-0.1321 -0.914501,-0.1321l-0.2616 0c-0.0659001,0.0663001 -0.2612,0.0663001 -0.4577,0.0663001 -0.0662001,0.327 -0.0662001,0.719201 -0.131,1.1757l0 1.4385 0 2.4178z"/>
   <path id="_67424208" class="fil3" d="M54.7646 89.4597l0 -0.0658001 0.458 0c0.1306,0.0658001 0.2612,0.0658001 0.4565,0.0658001 0.1306,0 0.2612,0 0.3918,-0.0658001l0.3934 0c0.848601,2.2883 1.8291,4.6402 2.8099,7.05911 1.0451,2.4178 2.1562,4.9014 3.2676,7.44981 -0.2616,0 -0.5886,-0.0659001 -0.850201,-0.0659001l-1.0452 0 -0.980401 0c-0.3275,0 -0.5887,0.0659001 -0.914601,0.0659001 -0.1306,-0.5228 -0.3274,-1.1114 -0.5227,-1.6997 -0.2624,-0.5875 -0.524,-1.3726 -0.915801,-2.4825 -0.3259,0 -0.653301,-0.0659001 -0.979201,-0.0659001l-1.5691 0 0 -1.3067 0.719201 0 1.242 0c-0.3274,-0.849801 -0.5886,-1.6338 -0.916101,-2.4836 -0.3259,-0.784001 -0.653301,-1.568 -1.0451,-2.2872l0 0.0647001 0 -4.1822zm-6.1435 14.4431c1.0456,-2.2225 2.0919,-4.5744 3.1371,-6.99331 0.980801,-2.3515 2.0259,-4.8355 3.0064,-7.44981l0 4.1822c-0.3918,0.719301 -0.719301,1.4385 -1.0452,2.2225 -0.3274,0.783901 -0.654501,1.6338 -0.916101,2.4836l0.0663001 0 1.895 0 0 1.3067 -1.6338 0c-0.3275,0 -0.653401,0.0659001 -0.980501,0.0659001 -0.3921,1.1758 -0.719201,2.0256 -0.914501,2.6131 -0.2616,0.5886 -0.4581,1.111 -0.653401,1.5691 -0.1965,0 -0.3275,-0.0659001 -0.5228,-0.0659001l-0.3929 0c-0.1953,0 -0.5228,0 -0.914601,0.0659001l-0.131 0z"/>
   <path id="_67126080" class="fil3" d="M65.4824 103.903c0.1969,-1.0456 0.3275,-2.026 0.4581,-2.7452 0.1306,-0.784001 0.2612,-1.3064 0.2612,-1.6338l1.4373 -9.86761c0.1306,0 0.2612,0 0.4577,0.0647001l0.4569 0 0.5239 0c0.1953,-0.0647001 0.3259,-0.0647001 0.4565,-0.0647001 0.784001,1.6338 1.6338,3.2676 2.4837,4.9014 0.849801,1.6338 1.6996,3.2676 2.6142,4.8356 0.850201,-1.568 1.6985,-3.1371 2.5484,-4.7709 0.849801,-1.5679 1.7,-3.2676 2.4836,-4.9661 0.131,0 0.3263,0 0.4581,0.0647001l0.5227 0 0.5224 0c0.1953,-0.0647001 0.3259,-0.0647001 0.5228,-0.0647001l1.2416 9.93341c0.131,1.1115 0.2616,2.026 0.3922,2.6131 0.0647001,0.654501 0.1965,1.1773 0.3274,1.7001 -0.3933,-0.0663001 -0.719601,-0.0663001 -1.0467,-0.0663001 -0.2612,0 -0.5871,-0.0647001 -0.849801,-0.0647001 -0.2616,0 -0.5875,0.0647001 -0.848701,0.0647001 -0.3274,0 -0.653301,0 -0.980401,0.0663001l0 -0.1969c-0.0663001,-1.5032 -0.1306,-2.3515 -0.1969,-2.7437l-0.653001 -6.66581c-0.850201,1.5032 -1.6985,3.0712 -2.484,4.6387 -0.848301,1.5691 -1.6981,3.2676 -2.5484,4.9677 -0.0643001,0 -0.0643001,0 -0.1306,-0.0663001l-0.327 0 -0.2616 0c-0.0643001,0.0663001 -0.1306,0.0663001 -0.1306,0.0663001 -0.914601,-1.7001 -1.6985,-3.3339 -2.5484,-4.8355 -0.783901,-1.5691 -1.6338,-3.0065 -2.4177,-4.445l-0.5224 4.3791 0 0.1306c-0.2612,2.2867 -0.3918,3.8562 -0.3918,4.7708 -0.1969,-0.0663001 -0.3275,-0.0663001 -0.5243,-0.0663001 -0.1306,0 -0.2612,-0.0647001 -0.3918,-0.0647001 -0.1306,0 -0.2612,0.0647001 -0.4565,0.0647001 -0.1306,0 -0.2612,0 -0.4581,0.0663001z"/>
   <path id="_67188848" class="fil3" d="M92.7343 89.4597l0 -0.0658001 0.4581 0c0.1306,0.0658001 0.2612,0.0658001 0.4565,0.0658001 0.1306,0 0.2612,0 0.3918,-0.0658001l0.3933 0c0.848701,2.2883 1.8291,4.6402 2.8096,7.05911 1.0451,2.4178 2.1565,4.9014 3.2676,7.44981 -0.2612,0 -0.5887,-0.0659001 -0.849901,-0.0659001l-1.0451 0 -0.980501 0c-0.3274,0 -0.5886,0.0659001 -0.914501,0.0659001 -0.1306,-0.5228 -0.3275,-1.1114 -0.5228,-1.6997 -0.2627,-0.5875 -0.5239,-1.3726 -0.915701,-2.4825 -0.3259,0 -0.653401,-0.0659001 -0.980801,-0.0659001l-1.5676 0 0 -1.3067 0.719301 0 1.2416 0c-0.3271,-0.849801 -0.5883,-1.6338 -0.915701,-2.4836 -0.3259,-0.784001 -0.653401,-1.568 -1.0452,-2.2872l0 0.0647001 0 -4.1822zm-6.1434 14.4431c1.0451,-2.2225 2.0919,-4.5744 3.137,-6.99331 0.980401,-2.3515 2.0256,-4.8355 3.0064,-7.44981l0 4.1822c-0.3921,0.719301 -0.719201,1.4385 -1.0451,2.2225 -0.3275,0.783901 -0.654901,1.6338 -0.916101,2.4836l0.0662001 0 1.895 0 0 1.3067 -1.6338 0c-0.3274,0 -0.653301,0.0659001 -0.980801,0.0659001 -0.3918,1.1758 -0.719301,2.0256 -0.914201,2.6131 -0.2615,0.5886 -0.458,1.111 -0.653301,1.5691 -0.1969,0 -0.3275,-0.0659001 -0.5228,-0.0659001l-0.3934 0c-0.1953,0 -0.5223,0 -0.914501,0.0659001l-0.1306 0z"/>
   <path id="_68109016" class="fil4" d="M33.0024 122.201c0.1306,-0.849801 0.2612,-1.5679 0.3274,-2.1566 0.1306,-0.653301 0.1953,-1.0451 0.1953,-1.3079l1.1111 -7.71091 0.3921 0c0.1306,0.0658001 0.2612,0.0658001 0.3918,0.0658001 0.1306,0 0.2612,0 0.3918,-0.0658001l0.3275 0c0.653301,1.3063 1.3063,2.5483 1.9612,3.8562 0.653001,1.2417 1.3711,2.4837 2.0256,3.79 0.718101,-1.2416 1.3726,-2.4836 2.0256,-3.7253 0.653401,-1.3067 1.3067,-2.6146 1.9601,-3.9209l0.3271 0c0.1306,0.0658001 0.3274,0.0658001 0.458,0.0658001 0.1306,0 0.2612,0 0.3918,-0.0658001l0.3922 0 0.980401 7.77721c0.1306,0.914601 0.1953,1.5675 0.2612,2.0915 0.1306,0.4569 0.1953,0.914501 0.2616,1.3067 -0.2616,-0.0663001 -0.5228,-0.0663001 -0.784001,-0.0663001 -0.1968,0 -0.458,-0.0643001 -0.654501,-0.0643001 -0.1953,0 -0.4569,0.0643001 -0.718101,0.0643001 -0.1964,0 -0.458,0 -0.719201,0.0663001l0 -0.1969c-0.0659001,-1.1098 -0.1306,-1.8291 -0.1306,-2.0903l-0.5887 -5.2288c-0.5871,1.1773 -1.242,2.353 -1.895,3.595 -0.653301,1.242 -1.3067,2.5484 -2.0259,3.921 0,0 -0.0659001,-0.0663001 -0.1306,-0.0663001l-0.1965 0 -0.1953 0c-0.0663001,0 -0.1306,0.0663001 -0.1306,0.0663001 -0.653401,-1.3726 -1.3079,-2.6146 -1.9613,-3.8563 -0.653301,-1.1757 -1.3063,-2.3518 -1.895,-3.3982l-0.3921 3.3982 -0.0648001 0.1306c-0.1964,1.7644 -0.327,3.0065 -0.327,3.7257 -0.1306,-0.0663001 -0.2612,-0.0663001 -0.3275,-0.0663001 -0.1306,0 -0.2612,-0.0643001 -0.3259,-0.0643001 -0.1306,0 -0.2612,0.0643001 -0.3271,0.0643001 -0.1309,0 -0.2615,0 -0.3921,0.0663001z"/>
   <path id="_68167208" class="fil4" d="M57.9667 122.201c0.131,-0.849801 0.2616,-1.5679 0.3275,-2.1566 0.1305,-0.653301 0.1953,-1.0451 0.1953,-1.3079l1.111 -7.71091 0.3922 0c0.0658001,0.0658001 0.1964,0.0658001 0.3918,0.0658001 0.1305,0 0.2615,0 0.3921,-0.0658001l0.3271 0c0.653401,1.3063 1.3067,2.5483 1.9613,3.8562 0.653301,1.2417 1.371,2.4837 2.0256,3.79 0.718001,-1.2416 1.3726,-2.4836 2.0259,-3.7253 0.653001,-1.3067 1.3064,-2.6146 1.9597,-3.9209l0.3271 0c0.131,0.0658001 0.2616,0.0658001 0.4581,0.0658001 0.1306,0 0.2612,0 0.3921,-0.0658001l0.3918 0 0.980501 7.77721c0.1306,0.914601 0.1953,1.5675 0.2615,2.0915 0.1306,0.4569 0.1954,0.914501 0.2612,1.3067 -0.2612,-0.0663001 -0.5227,-0.0663001 -0.783901,-0.0663001 -0.1965,0 -0.4581,-0.0643001 -0.654601,-0.0643001 -0.2611,0 -0.4565,0.0643001 -0.718001,0.0643001 -0.1965,0 -0.4577,0 -0.719301,0.0663001l0 -0.1969c-0.0659001,-1.1098 -0.1306,-1.8291 -0.1306,-2.0903l-0.5886 -5.2288c-0.653001,1.1773 -1.2417,2.353 -1.895,3.595 -0.653401,1.242 -1.3064,2.5484 -2.0256,3.921 0,0 -0.0663001,-0.0663001 -0.131,-0.0663001l-0.1965 0 -0.1953 0c-0.0659001,0 -0.1306,0.0663001 -0.1306,0.0663001 -0.719201,-1.3726 -1.3726,-2.6146 -1.9612,-3.8563 -0.653001,-1.1757 -1.3064,-2.3518 -1.895,-3.3982l-0.4565 3.3982 0 0.1306c-0.1969,1.7644 -0.3275,3.0065 -0.3275,3.7257 -0.1306,-0.0663001 -0.2612,-0.0663001 -0.3271,-0.0663001 -0.131,0 -0.2616,-0.0643001 -0.3263,-0.0643001 -0.1306,0 -0.2612,0.0643001 -0.3917,0.0643001 -0.0659001,0 -0.1965,0 -0.3275,0.0663001z"/>
   <path id="_68238448" class="fil4" d="M86.8529 110.83l0 -0.0659001c0.1306,0.0659001 0.2612,0.0659001 0.3918,0.0659001l0.3274 0 0.3259 0c0.0659001,0 0.1965,0 0.2612,-0.0659001 0.719301,1.8303 1.4385,3.7257 2.2883,5.6207 0.784001,1.8949 1.6339,3.7903 2.5484,5.8159 -0.1965,-0.0647001 -0.4581,-0.0647001 -0.719201,-0.0647001l-0.784001 0 -0.784001 0c-0.2612,0 -0.4576,0 -0.719201,0.0647001 -0.1306,-0.4565 -0.2612,-0.848701 -0.3918,-1.3063 -0.1965,-0.4581 -0.3918,-1.1762 -0.719201,-2.026l-0.784001 0 -1.2416 0 0 -1.0452 0.5882 0 0.979301 0c-0.2612,-0.654501 -0.4565,-1.3079 -0.717701,-1.8949 -0.2616,-0.654601 -0.5228,-1.2421 -0.785501,-1.8966 -0.0643001,0.0659001 -0.0643001,0.0659001 -0.0643001,0.1306l0 -3.3323zm-4.7708 11.3707c0.783901,-1.7644 1.6338,-3.5935 2.4177,-5.4885 0.783601,-1.8954 1.5691,-3.7904 2.3531,-5.8822l0 3.3323c-0.2616,0.5239 -0.5228,1.1114 -0.784001,1.6997 -0.2616,0.653301 -0.5228,1.3067 -0.719201,1.9612l1.5032 0 0 1.0452 -1.242 0 -0.784001 0c-0.3271,0.914601 -0.5887,1.6338 -0.719301,2.0919 -0.1953,0.4565 -0.3259,0.848601 -0.5223,1.2404 -0.131,-0.0647001 -0.2616,-0.0647001 -0.3922,-0.0647001l-0.3271 0c-0.131,0 -0.3922,0 -0.718101,0.0647001l-0.0658001 0z"/>
   <path id="_67127496" class="fil5" d="M122.6 61.2928c-5.1626,4.1822 -10.064,6.99331 -17.3832,8.62711 -12.2865,-0.915701 -12.483,-11.4366 -21.5665,-10.5221 -6.40471,-0.1965 -18.364,12.1559 -22.0893,10.5221 -5.6195,3.0064 -14.4431,-12.8751 -19.8672,-12.1559 -4.3787,-2.0919 -13.6576,4.9014 -19.3441,12.4171l2.2221 2.2871c4.379,-4.9014 11.0448,-11.1754 14.443,-10.9785 6.66581,-1.6338 10.7837,12.1543 22.2846,13.0704 11.7641,-2.5499 16.7302,-11.4366 22.6121,-11.1754 5.6206,-1.4385 9.54161,10.2593 21.3053,10.5209 9.54161,-1.8954 14.443,-6.53521 20.3237,-10.7821l-2.9405 -1.8307z"/>
  </g>
 </g>
</svg>
